<?xml version="1.0" encoding="utf-8"?>
<!-- Generator: Adobe Illustrator 27.6.1, SVG Export Plug-In . SVG Version: 6.00 Build 0)  -->
<svg version="1.1" id="Layer_1" xmlns="http://www.w3.org/2000/svg" xmlns:xlink="http://www.w3.org/1999/xlink" x="0px" y="0px"
	 viewBox="0 0 1850.3 389.4" style="enable-background:new 0 0 1850.3 389.4;" xml:space="preserve">
<g>
	<polygon points="100.9,9.4 103.9,9.4 140,9.4 143,9.4 179,9.4 182,9.4 218.1,9.4 221.1,9.4 260.2,9.4 261.2,9.4 261.2,8.4 261.2,1 
		261.2,0 260.2,0 221.1,0 218.1,0 182,0 179,0 143,0 140,0 103.9,0 100.9,0 61.9,0 60.9,0 60.9,1 60.9,8.4 60.9,9.4 61.9,9.4 	"/>
	<polygon points="616.6,9.4 617.6,9.4 617.6,8.4 617.6,1 617.6,0 616.6,0 574.6,0 573.6,0 573.6,1 573.6,8.4 573.6,9.4 574.6,9.4 	
		"/>
	<polygon points="1160.5,9.4 1163.5,9.4 1199.5,9.4 1202.5,9.4 1238.6,9.4 1241.6,9.4 1277.6,9.4 1280.7,9.4 1319.7,9.4 1320.7,9.4 
		1320.7,8.4 1320.7,1 1320.7,0 1319.7,0 1280.7,0 1277.6,0 1241.6,0 1238.6,0 1202.5,0 1199.5,0 1163.5,0 1160.5,0 1121.4,0 
		1120.4,0 1120.4,1 1120.4,8.4 1120.4,9.4 1121.4,9.4 	"/>
	<polygon points="1394.8,9.4 1397.8,9.4 1433.9,9.4 1436.9,9.4 1472.9,9.4 1475.9,9.4 1512,9.4 1515,9.4 1554.1,9.4 1555.1,9.4 
		1555.1,8.4 1555.1,1 1555.1,0 1554.1,0 1515,0 1512,0 1475.9,0 1472.9,0 1436.9,0 1433.9,0 1397.8,0 1394.8,0 1368.8,0 1367.8,0 
		1367.8,1 1367.8,8.4 1367.8,9.4 1368.8,9.4 	"/>
	<polygon points="1788.4,0 1785.4,0 1749.4,0 1746.4,0 1710.3,0 1707.3,0 1671.2,0 1668.2,0 1632.2,0 1629.2,0 1590.1,0 1589.1,0 
		1589.1,1 1589.1,8.4 1589.1,9.4 1590.1,9.4 1629.2,9.4 1632.2,9.4 1668.2,9.4 1671.2,9.4 1707.3,9.4 1710.3,9.4 1746.4,9.4 
		1749.4,9.4 1785.4,9.4 1788.4,9.4 1827.5,9.4 1828.5,9.4 1828.5,8.4 1828.5,1 1828.5,0 1827.5,0 	"/>
	<polygon points="49.4,20.7 48.9,20.7 48.6,21.1 7.7,79.4 6.6,80.9 8.5,80.9 17.2,80.9 17.7,80.9 18,80.5 58.9,22.3 60,20.7 
		58.1,20.7 	"/>
	<polygon points="15,322.1 14.7,321.7 14.2,321.7 5.5,321.7 3.6,321.7 4.7,323.3 45.6,381.5 45.9,381.9 46.4,381.9 55.1,381.9 
		57,381.9 55.9,380.4 	"/>
	<polygon points="261.2,85.4 261.2,84.4 261.2,77 261.2,76 260.2,76 221.1,76 218.1,76 182,76 179,76 143,76 140,76 100.9,76 
		99.9,76 99.9,77 99.9,84.4 99.9,85.4 100.9,85.4 140,85.4 143,85.4 179,85.4 182,85.4 218.1,85.4 221.1,85.4 260.2,85.4 	"/>
	<polygon points="552.8,20.7 551.8,20.7 551.8,21.7 551.8,77.8 512,21.1 511.7,20.7 511.2,20.7 502.5,20.7 500.6,20.7 501.7,22.3 
		542.6,80.5 542.9,80.9 543.4,80.9 551.8,80.9 552.1,80.9 552.8,80.9 554,80.9 560.3,80.9 561.3,80.9 561.3,79.9 561.3,21.7 
		561.3,20.7 560.3,20.7 	"/>
	<polygon points="257.8,14.7 256.8,14.7 256.8,15.7 256.8,69.9 256.8,70.9 257.8,70.9 265.3,70.9 266.3,70.9 266.3,69.9 266.3,15.7 
		266.3,14.7 265.3,14.7 	"/>
	<polygon points="257.8,315.7 256.8,315.7 256.8,316.7 256.8,372.9 256.8,373.9 257.8,373.9 265.3,373.9 266.3,373.9 266.3,372.9 
		266.3,316.7 266.3,315.7 265.3,315.7 	"/>
	<polygon points="638.4,80.9 639.4,80.9 639.4,79.9 639.4,21.7 639.4,20.7 638.4,20.7 630.9,20.7 629.9,20.7 629.9,21.7 629.9,79.9 
		629.9,80.9 630.9,80.9 	"/>
	<polygon points="1281.7,85.3 1313.2,85.5 1314.2,85.5 1314.2,84.5 1314.3,77.1 1314.3,76.1 1313.3,76.1 1277.7,75.9 1276.7,75.9 
		1276.7,76 1241.6,76 1238.6,76 1202.5,76 1199.5,76 1160.5,76 1159.5,76 1159.5,77 1159.5,84.4 1159.5,85.4 1160.5,85.4 
		1199.5,85.4 1202.5,85.4 1238.6,85.4 1241.6,85.4 1280.7,85.4 1281.7,85.4 	"/>
	<polygon points="1433.9,85.4 1436.9,85.4 1472.9,85.4 1475.9,85.4 1512,85.4 1515,85.4 1554.1,85.4 1555.1,85.4 1555.1,84.4 
		1555.1,77 1555.1,76 1554.1,76 1515,76 1512,76 1475.9,76 1472.9,76 1436.9,76 1433.9,76 1394.8,76 1393.8,76 1393.8,77 
		1393.8,84.4 1393.8,85.4 1394.8,85.4 	"/>
	<polygon points="1568.3,20.7 1567.3,20.7 1567.3,21.7 1567.3,79.9 1567.3,80.9 1568.3,80.9 1575.9,80.9 1576.9,80.9 1576.9,79.9 
		1576.9,21.7 1576.9,20.7 1575.9,20.7 	"/>
	<polygon points="1788.4,76 1785.4,76 1749.4,76 1746.4,76 1710.3,76 1707.3,76 1668.2,76 1667.2,76 1667.2,77 1667.2,84.4 
		1667.2,85.4 1668.2,85.4 1707.3,85.4 1710.3,85.4 1746.4,85.4 1749.4,85.4 1785.4,85.4 1788.4,85.4 1827.5,85.4 1828.5,85.4 
		1828.5,84.4 1828.5,77 1828.5,76 1827.5,76 	"/>
	<polygon points="1849.3,20.7 1841.7,20.7 1840.7,20.7 1840.7,21.7 1840.7,79.9 1840.7,80.9 1841.7,80.9 1849.3,80.9 1850.3,80.9 
		1850.3,79.9 1850.3,21.7 1850.3,20.7 	"/>
	<polygon points="8.5,156.9 9.5,156.9 9.5,155.9 9.5,97.7 9.5,96.7 8.5,96.7 1,96.7 0,96.7 0,97.7 0,155.9 0,156.9 1,156.9 	"/>
	<polygon points="87.7,155.9 87.7,97.7 87.7,96.7 86.7,96.7 79.1,96.7 78.1,96.7 78.1,97.7 78.1,155.9 78.1,156.9 79.1,156.9 
		86.7,156.9 87.7,156.9 	"/>
	<polygon points="552.8,96.7 551.8,96.7 551.8,97.7 551.8,155.9 551.8,156.9 552.8,156.9 560.3,156.9 561.3,156.9 561.3,155.9 
		561.3,97.7 561.3,96.7 560.3,96.7 	"/>
	<polygon points="638.4,156.9 639.4,156.9 639.4,155.9 639.4,97.7 639.4,96.7 638.4,96.7 630.9,96.7 629.9,96.7 629.9,97.7 
		629.9,155.9 629.9,156.9 630.9,156.9 	"/>
	<path d="M1156.8,102.8l1.4-1.1l0.9-0.7l-0.8-0.8l-5.2-5l-0.6-0.5l-0.7,0.4l-1,0.6c-10.6,6.5-17.1,18.5-17.1,31.2
		c0,12.7,6.6,24.6,17.1,31.2l1,0.6l0.7,0.4l0.6-0.5l5.2-5l0.8-0.8l-0.9-0.7l-1.4-1.1c-8.6-6.7-12.4-14.1-12.4-24
		C1144.4,116.9,1148.2,109.5,1156.8,102.8z"/>
	<polygon points="1281.7,161.4 1281.7,160.4 1281.7,153 1281.7,152 1280.7,152 1241.6,152 1238.6,152 1202.5,152 1199.5,152 
		1160.5,152 1159.5,152 1159.5,153 1159.5,160.4 1159.5,161.4 1160.5,161.4 1199.5,161.4 1202.5,161.4 1238.6,161.4 1241.6,161.4 
		1280.7,161.4 	"/>
	<polygon points="1302.4,156.9 1303.4,156.9 1303.4,155.9 1303.4,97.7 1303.4,96.7 1302.4,96.7 1294.9,96.7 1293.9,96.7 
		1293.9,97.7 1293.9,155.9 1293.9,156.9 1294.9,156.9 	"/>
	<path d="M1391.1,102.8l1.4-1.1l0.9-0.7l-0.8-0.8l-5.2-5l-0.6-0.5l-0.7,0.4l-1,0.6c-10.6,6.5-17.1,18.5-17.1,31.2
		c0,12.7,6.6,24.6,17.1,31.2l1,0.6l0.7,0.4l0.6-0.5l5.2-5l0.8-0.8l-0.9-0.7l-1.4-1.1c-8.6-6.7-12.4-14.1-12.4-24
		C1378.7,116.9,1382.6,109.5,1391.1,102.8z"/>
	<polygon points="1516,161.4 1516,160.4 1516,153 1516,152 1515,152 1475.9,152 1472.9,152 1436.9,152 1433.9,152 1394.8,152 
		1393.8,152 1393.8,153 1393.8,160.4 1393.8,161.4 1394.8,161.4 1433.9,161.4 1436.9,161.4 1472.9,161.4 1475.9,161.4 1515,161.4 	
		"/>
	<polygon points="1568.3,96.7 1567.3,96.7 1567.3,97.7 1567.3,155.9 1567.3,156.9 1568.3,156.9 1575.9,156.9 1576.9,156.9 
		1576.9,155.9 1576.9,97.7 1576.9,96.7 1575.9,96.7 	"/>
	<polygon points="1654,156.9 1655,156.9 1655,155.9 1655,97.7 1655,96.7 1654,96.7 1646.4,96.7 1645.4,96.7 1645.4,97.7 
		1645.4,155.9 1645.4,156.9 1646.4,156.9 	"/>
	<polygon points="1707.3,161.4 1710.3,161.4 1749.4,161.4 1750.4,161.4 1750.4,160.4 1750.4,153 1750.4,152 1749.4,152 1710.3,152 
		1707.3,152 1668.2,152 1667.2,152 1667.2,153 1667.2,160.4 1667.2,161.4 1668.2,161.4 	"/>
	<polygon points="8.5,232.9 9.5,232.9 9.5,231.9 9.5,173.7 9.5,172.7 8.5,172.7 1,172.7 0,172.7 0,173.7 0,231.9 0,232.9 1,232.9 	
		"/>
	<polygon points="87.7,231.9 87.7,173.7 87.7,172.7 86.7,172.7 79.1,172.7 78.1,172.7 78.1,173.7 78.1,231.9 78.1,232.9 79.1,232.9 
		86.7,232.9 87.7,232.9 	"/>
	<polygon points="552.8,172.7 551.8,172.7 551.8,173.7 551.8,231.9 551.8,232.9 552.8,232.9 560.3,232.9 561.3,232.9 561.3,231.9 
		561.3,173.7 561.3,172.7 560.3,172.7 	"/>
	<polygon points="638.4,232.9 639.4,232.9 639.4,231.9 639.4,173.7 639.4,172.7 638.4,172.7 630.9,172.7 629.9,172.7 629.9,173.7 
		629.9,231.9 629.9,232.9 630.9,232.9 	"/>
	<polygon points="1476.9,236.4 1476.9,229 1476.9,228 1475.9,228 1436.9,228 1433.9,228 1397.8,228 1394.8,228 1355.8,228 
		1354.8,228 1354.8,229 1354.8,236.4 1354.8,237.4 1355.8,237.4 1394.8,237.4 1397.8,237.4 1433.9,237.4 1436.9,237.4 1475.9,237.4 
		1476.9,237.4 	"/>
	<polygon points="1568.3,172.7 1567.3,172.7 1567.3,173.7 1567.3,231.9 1567.3,232.9 1568.3,232.9 1575.9,232.9 1576.9,232.9 
		1576.9,231.9 1576.9,173.7 1576.9,172.7 1575.9,172.7 	"/>
	<polygon points="1667.2,229 1667.2,236.4 1667.2,237.4 1668.2,237.4 1707.3,237.4 1710.3,237.4 1749.4,237.4 1750.4,237.4 
		1750.4,236.4 1750.4,229 1750.4,228 1749.4,228 1710.3,228 1707.3,228 1668.2,228 1667.2,228 	"/>
	<polygon points="1772.2,232.9 1772.2,231.9 1772.2,173.7 1772.2,172.7 1771.2,172.7 1763.6,172.7 1762.6,172.7 1762.6,173.7 
		1762.6,231.9 1762.6,232.9 1763.6,232.9 1771.2,232.9 	"/>
	<polygon points="9.5,308.9 9.5,307.9 9.5,249.7 9.5,248.7 8.5,248.7 1,248.7 0,248.7 0,249.7 0,307.9 0,308.9 1,308.9 8.5,308.9 	
		"/>
	<polygon points="79.1,248.7 78.1,248.7 78.1,249.7 78.1,307.9 78.1,308.9 79.1,308.9 86.7,308.9 87.7,308.9 87.7,307.9 87.7,249.7 
		87.7,248.7 86.7,248.7 	"/>
	<polygon points="182,304 179,304 143,304 140,304 100.9,304 99.9,304 99.9,305 99.9,312.4 99.9,313.4 100.9,313.4 140,313.4 
		143,313.4 179,313.4 182,313.4 244.1,313.4 245.1,313.4 245.1,312.4 245.1,305 245.1,304 244.1,304 	"/>
	<polygon points="552.8,248.7 551.8,248.7 551.8,249.7 551.8,307.9 551.8,308.9 552.8,308.9 560.3,308.9 561.3,308.9 561.3,307.9 
		561.3,249.7 561.3,248.7 560.3,248.7 	"/>
	<polygon points="638.4,308.9 639.4,308.9 639.4,307.9 639.4,249.7 639.4,248.7 638.4,248.7 630.9,248.7 629.9,248.7 629.9,249.7 
		629.9,307.9 629.9,308.9 630.9,308.9 	"/>
	<polygon points="691.8,313.4 694.8,313.4 730.8,313.4 733.8,313.4 772.9,313.4 773.9,313.4 773.9,312.4 773.9,305 773.9,304 
		772.9,304 733.8,304 730.8,304 694.8,304 691.8,304 652.7,304 651.7,304 651.7,305 651.7,312.4 651.7,313.4 652.7,313.4 	"/>
	<polygon points="1202.5,304 1199.5,304 1163.5,304 1160.5,304 1124.4,304 1121.4,304 1082.4,304 1081.4,304 1081.4,305 
		1081.4,312.4 1081.4,313.4 1082.4,313.4 1121.4,313.4 1124.4,313.4 1160.5,313.4 1163.5,313.4 1199.5,313.4 1202.5,313.4 
		1241.6,313.4 1242.6,313.4 1242.6,312.4 1242.6,305 1242.6,304 1241.6,304 	"/>
	<path d="M1245.3,302.9l-1.4,1.1l-0.9,0.7l0.8,0.8l5.2,5l0.6,0.5l0.7-0.4l1-0.6c10.6-6.5,17.1-18.5,17.1-31.2
		c0-12.7-6.6-24.6-17.1-31.2l-1-0.6l-0.7-0.4l-0.6,0.5l-5.2,5l-0.8,0.8l0.9,0.7l1.4,1.1c8.6,6.7,12.4,14.1,12.4,24
		C1257.7,288.8,1253.9,296.2,1245.3,302.9z"/>
	<polygon points="1333,248.7 1333,249.7 1333,307.9 1333,308.9 1334,308.9 1341.5,308.9 1342.5,308.9 1342.5,307.9 1342.5,249.7 
		1342.5,248.7 1341.5,248.7 1334,248.7 	"/>
	<polygon points="1436.9,304 1433.9,304 1397.8,304 1394.8,304 1355.8,304 1354.8,304 1354.8,305 1354.8,312.4 1354.8,313.4 
		1355.8,313.4 1394.8,313.4 1397.8,313.4 1433.9,313.4 1436.9,313.4 1475.9,313.4 1476.9,313.4 1476.9,312.4 1476.9,305 1476.9,304 
		1475.9,304 	"/>
	<path d="M1479.7,302.9l-1.4,1.1l-0.9,0.7l0.8,0.8l5.2,5l0.6,0.5l0.7-0.4l1-0.6c10.6-6.5,17.1-18.5,17.1-31.2
		c0-12.7-6.6-24.6-17.1-31.2l-1-0.6l-0.7-0.4l-0.6,0.5l-5.2,5l-0.8,0.8l0.9,0.7l1.4,1.1c8.6,6.7,12.4,14.1,12.4,24
		C1492,288.8,1488.2,296.2,1479.7,302.9z"/>
	<polygon points="1568.3,248.7 1567.3,248.7 1567.3,249.7 1567.3,307.9 1567.3,308.9 1568.3,308.9 1575.9,308.9 1576.9,308.9 
		1576.9,307.9 1576.9,249.7 1576.9,248.7 1575.9,248.7 	"/>
	<polygon points="1645.4,249.7 1645.4,307.9 1645.4,308.9 1646.4,308.9 1654,308.9 1655,308.9 1655,307.9 1655,249.7 1655,248.7 
		1654,248.7 1646.4,248.7 1645.4,248.7 	"/>
	<polygon points="1788.4,304 1785.4,304 1749.4,304 1746.4,304 1710.3,304 1707.3,304 1668.2,304 1667.2,304 1667.2,305 
		1667.2,312.4 1667.2,313.4 1668.2,313.4 1707.3,313.4 1710.3,313.4 1746.4,313.4 1749.4,313.4 1785.4,313.4 1788.4,313.4 
		1827.5,313.4 1828.5,313.4 1828.5,312.4 1828.5,305 1828.5,304 1827.5,304 	"/>
	<polygon points="221.1,380 218.1,380 182,380 179,380 143,380 140,380 103.9,380 100.9,380 61.9,380 60.9,380 60.9,381 60.9,388.4 
		60.9,389.4 61.9,389.4 100.9,389.4 103.9,389.4 140,389.4 143,389.4 179,389.4 182,389.4 218.1,389.4 221.1,389.4 260.2,389.4 
		261.2,389.4 261.2,388.4 261.2,381 261.2,380 260.2,380 	"/>
	<polygon points="552.8,324.7 551.8,324.7 551.8,325.7 551.8,383.9 551.8,384.9 552.8,384.9 560.3,384.9 561.3,384.9 561.3,383.9 
		561.3,325.7 561.3,324.7 560.3,324.7 	"/>
	<path d="M772.9,380h-3h-36.1h-3h-36.1h-3h-36.1h-3h-36.1h-3h-39.1h-1v1v7.4v1h1h39.1h3h36.1h3h36.1h3h36.1h3h36.1h3h39.1h1v-1V381
		v-1h-1H772.9z M811.9,381h-39.1h-3h-36.1h-3h-36.1h-3h-36.1h-3h-36.1h-3h-39.1v0h39.1h3h36.1h3h36.1h3h36.1h3h36.1h3L811.9,381
		L811.9,381z"/>
	<polygon points="1060.6,328.7 1059.6,328.7 1059.6,329.7 1059.6,383.9 1059.6,384.9 1060.6,384.9 1068.1,384.9 1069.1,384.9 
		1069.1,383.9 1069.1,329.7 1069.1,328.7 1068.1,328.7 	"/>
	<polygon points="1241.6,380 1238.6,380 1202.5,380 1199.5,380 1163.5,380 1160.5,380 1124.4,380 1121.4,380 1082.4,380 1081.4,380 
		1081.4,381 1081.4,388.4 1081.4,389.4 1082.4,389.4 1121.4,389.4 1124.4,389.4 1160.5,389.4 1163.5,389.4 1199.5,389.4 
		1202.5,389.4 1238.6,389.4 1241.6,389.4 1280.7,389.4 1281.7,389.4 1281.7,388.4 1281.7,381 1281.7,380 1280.7,380 	"/>
	<polygon points="1568.3,324.7 1567.3,324.7 1567.3,325.7 1567.3,383.9 1567.3,384.9 1568.3,384.9 1575.9,384.9 1576.9,384.9 
		1576.9,383.9 1576.9,325.7 1576.9,324.7 1575.9,324.7 	"/>
	<path d="M1788.4,380h-3h-36.1h-3h-36.1h-3h-36.1h-3h-36.1h-3h-39.1h-1v1v7.4v1h1h39.1h3h36.1h3h36.1h3h36.1h3h36.1h3h39.1h1v-1V381
		v-1h-1H1788.4z M1827.5,381h-39.1h-3h-36.1h-3h-36.1h-3h-36.1h-3h-36.1h-3h-39.1v0h39.1h3h36.1h3h36.1h3h36.1h3h36.1h3L1827.5,381
		L1827.5,381z"/>
	<polygon points="1841.7,324.7 1840.7,324.7 1840.7,325.7 1840.7,383.9 1840.7,384.9 1841.7,384.9 1849.3,384.9 1850.3,384.9 
		1850.3,383.9 1850.3,325.7 1850.3,324.7 1849.3,324.7 	"/>
	<polygon points="887.1,9.4 890.1,9.4 926.1,9.4 929.1,9.4 965.2,9.4 968.2,9.4 1007.2,9.4 1008.2,9.4 1008.2,8.4 1008.2,1 
		1008.2,0 1007.2,0 968.2,0 965.2,0 929.1,0 926.1,0 890.1,0 887.1,0 848,0 847,0 847,1 847,8.4 847,9.4 848,9.4 	"/>
	<polygon points="799.2,80.9 799.7,80.9 800,80.5 840.9,22.3 842,20.7 840.1,20.7 831.4,20.7 830.9,20.7 830.6,21.1 789.7,79.4 
		788.6,80.9 790.5,80.9 	"/>
	<polygon points="1080.2,80.9 1080.7,80.9 1081,80.5 1121.9,22.3 1123,20.7 1121.1,20.7 1112.4,20.7 1111.9,20.7 1111.6,21.1 
		1070.7,79.4 1069.6,80.9 1071.5,80.9 	"/>
	<polygon points="1316.6,80.9 1318.5,80.9 1327.2,80.9 1327.7,80.9 1328,80.5 1368.9,22.3 1370,20.7 1368.1,20.7 1359.4,20.7 
		1358.9,20.7 1358.6,21.1 1317.7,79.4 	"/>
	<polygon points="1335,317.7 1333.1,317.7 1324.4,317.7 1323.9,317.7 1323.6,318.1 1282.7,376.4 1281.6,377.9 1283.5,377.9 
		1292.2,377.9 1292.7,377.9 1293,377.5 1333.9,319.3 	"/>
	<polygon points="1061,321.7 1059.1,321.7 1050.4,321.7 1049.9,321.7 1049.6,322.1 1008.7,380.4 1008.2,381.1 1008.2,381 
		1008.2,380 1007.2,380 968.2,380 965.2,380 929.1,380 926.1,380 890.1,380 887.1,380 848,380 847,380 847,381 847,388.4 847,389.4 
		848,389.4 887.1,389.4 890.1,389.4 926.1,389.4 929.1,389.4 965.2,389.4 968.2,389.4 1007.2,389.4 1008.2,389.4 1008.2,388.4 
		1008.2,381.9 1009.5,381.9 1018.2,381.9 1018.7,381.9 1019,381.5 1059.9,323.3 	"/>
	<polygon points="1056.1,79.9 1056.6,80.5 1056.9,80.9 1057.4,80.9 1066.1,80.9 1068,80.9 1066.9,79.4 1026.4,21.7 1026,21.1 
		1025.7,20.7 1025.2,20.7 1016.5,20.7 1014.6,20.7 1015.7,22.3 	"/>
	<polygon points="804,322.1 803.7,321.7 803.2,321.7 794.5,321.7 792.6,321.7 793.7,323.3 834.6,381.5 834.9,381.9 835.4,381.9 
		844.1,381.9 846,381.9 844.9,380.4 	"/>
	<polygon points="969.2,84.4 969.2,77 969.2,76 968.2,76 929.1,76 926.1,76 887.1,76 886.1,76 886.1,77 886.1,84.4 886.1,85.4 
		887.1,85.4 926.1,85.4 929.1,85.4 968.2,85.4 969.2,85.4 	"/>
	<polygon points="794.7,156.9 795.7,156.9 795.7,155.9 795.7,97.7 795.7,96.7 794.7,96.7 787.1,96.7 786.1,96.7 786.1,97.7 
		786.1,155.9 786.1,156.9 787.1,156.9 	"/>
	<polygon points="873.8,155.9 873.8,97.7 873.8,96.7 872.8,96.7 865.3,96.7 864.3,96.7 864.3,97.7 864.3,155.9 864.3,156.9 
		865.3,156.9 872.8,156.9 873.8,156.9 	"/>
	<polygon points="991,155.9 991,97.7 991,96.7 990,96.7 982.4,96.7 981.4,96.7 981.4,97.7 981.4,155.9 981.4,156.9 982.4,156.9 
		990,156.9 991,156.9 	"/>
	<polygon points="1059.6,96.7 1059.6,97.7 1059.6,155.9 1059.6,156.9 1060.6,156.9 1068.1,156.9 1069.1,156.9 1069.1,155.9 
		1069.1,97.7 1069.1,96.7 1068.1,96.7 1060.6,96.7 	"/>
	<polygon points="794.7,232.9 795.7,232.9 795.7,231.9 795.7,173.7 795.7,172.7 794.7,172.7 787.1,172.7 786.1,172.7 786.1,173.7 
		786.1,231.9 786.1,232.9 787.1,232.9 	"/>
	<polygon points="873.8,231.9 873.8,173.7 873.8,172.7 872.8,172.7 865.3,172.7 864.3,172.7 864.3,173.7 864.3,231.9 864.3,232.9 
		865.3,232.9 872.8,232.9 873.8,232.9 	"/>
	<polygon points="991,231.9 991,173.7 991,172.7 990,172.7 982.4,172.7 981.4,172.7 981.4,173.7 981.4,231.9 981.4,232.9 
		982.4,232.9 990,232.9 991,232.9 	"/>
	<polygon points="794.7,308.9 795.7,308.9 795.7,307.9 795.7,249.7 795.7,248.7 794.7,248.7 787.1,248.7 786.1,248.7 786.1,249.7 
		786.1,307.9 786.1,308.9 787.1,308.9 	"/>
	<polygon points="865.3,248.7 864.3,248.7 864.3,249.7 864.3,307.9 864.3,308.9 865.3,308.9 872.8,308.9 873.8,308.9 873.8,307.9 
		873.8,249.7 873.8,248.7 872.8,248.7 	"/>
	<polygon points="929.1,304 926.1,304 887.1,304 886.1,304 886.1,305 886.1,312.4 886.1,313.4 887.1,313.4 926.1,313.4 929.1,313.4 
		968.2,313.4 969.2,313.4 969.2,312.4 969.2,305 969.2,304 968.2,304 	"/>
	<polygon points="982.4,248.7 981.4,248.7 981.4,249.7 981.4,307.9 981.4,308.9 982.4,308.9 990,308.9 991,308.9 991,307.9 
		991,249.7 991,248.7 990,248.7 	"/>
	<polygon points="1060.6,248.7 1059.6,248.7 1059.6,249.7 1059.6,307.9 1059.6,308.9 1060.6,308.9 1068.1,308.9 1069.1,308.9 
		1069.1,307.9 1069.1,249.7 1069.1,248.7 1068.1,248.7 	"/>
	<polygon points="373.1,9.4 376.1,9.4 412.1,9.4 415.1,9.4 451.2,9.4 454.2,9.4 493.2,9.4 494.2,9.4 494.2,8.4 494.2,1 494.2,0 
		493.2,0 454.2,0 451.2,0 415.1,0 412.1,0 376.1,0 373.1,0 334,0 333,0 333,1 333,8.4 333,9.4 334,9.4 	"/>
	<polygon points="285.2,80.9 285.7,80.9 286,80.5 326.9,22.3 328,20.7 326.1,20.7 317.4,20.7 316.9,20.7 316.6,21.1 275.7,79.4 
		274.6,80.9 276.5,80.9 	"/>
	<polygon points="536.4,321.7 535.9,321.7 535.6,322.1 494.7,380.4 494.2,381.1 494.2,381 494.2,380 493.2,380 454.2,380 451.2,380 
		415.1,380 412.1,380 376.1,380 373.1,380 335,380 334,380 334,381 334,388.4 334,389.4 335,389.4 373.1,389.4 376.1,389.4 
		412.1,389.4 415.1,389.4 451.2,389.4 454.2,389.4 493.2,389.4 494.2,389.4 494.2,388.4 494.2,381.9 495.5,381.9 504.2,381.9 
		504.7,381.9 505,381.5 545.9,323.3 547,321.7 545.1,321.7 	"/>
	<polygon points="290,322.1 289.7,321.7 289.2,321.7 280.5,321.7 278.6,321.7 279.7,323.3 320.6,381.5 320.9,381.9 321.4,381.9 
		330.1,381.9 332,381.9 330.9,380.4 	"/>
	<polygon points="1109.1,231.9 1109.6,232.5 1109.9,232.9 1110.4,232.9 1119.1,232.9 1120.4,232.9 1120.4,236.4 1120.4,237.4 
		1121.4,237.4 1160.5,237.4 1163.5,237.4 1199.5,237.4 1202.5,237.4 1241.6,237.4 1242.6,237.4 1242.6,236.4 1242.6,229 1242.6,228 
		1241.6,228 1202.5,228 1199.5,228 1163.5,228 1160.5,228 1121.4,228 1120.4,228 1120.4,229 1120.4,232.1 1119.9,231.4 1079,173.1 
		1078.7,172.7 1078.2,172.7 1069.5,172.7 1069.1,172.7 1069.1,172.7 1068.1,172.7 1060.6,172.7 1059.6,172.7 1059.6,173.7 
		1059.6,231.9 1059.6,232.9 1060.6,232.9 1068.1,232.9 1069.1,232.9 1069.1,231.9 1069.1,174.8 	"/>
	<polygon points="1350,223.9 1348.9,222.4 1308,164.1 1307.7,163.7 1307.2,163.7 1298.5,163.7 1296.6,163.7 1297.7,165.3 
		1338.1,222.9 1338.6,223.5 1338.9,223.9 1339.4,223.9 1348.1,223.9 	"/>
	<polygon points="1521.7,163.7 1521.2,163.7 1512.5,163.7 1510.6,163.7 1511.7,165.3 1552.1,222.9 1552.6,223.5 1552.9,223.9 
		1553.4,223.9 1562.1,223.9 1564,223.9 1562.9,222.4 1522,164.1 	"/>
	<polygon points="455.2,84.4 455.2,77 455.2,76 454.2,76 415.1,76 412.1,76 373.1,76 372.1,76 372.1,77 372.1,84.4 372.1,85.4 
		373.1,85.4 412.1,85.4 415.1,85.4 454.2,85.4 455.2,85.4 	"/>
	<polygon points="280.7,156.9 281.7,156.9 281.7,155.9 281.7,97.7 281.7,96.7 280.7,96.7 273.1,96.7 272.1,96.7 272.1,97.7 
		272.1,155.9 272.1,156.9 273.1,156.9 	"/>
	<polygon points="359.8,155.9 359.8,97.7 359.8,96.7 358.8,96.7 351.3,96.7 350.3,96.7 350.3,97.7 350.3,155.9 350.3,156.9 
		351.3,156.9 358.8,156.9 359.8,156.9 	"/>
	<polygon points="477,155.9 477,97.7 477,96.7 476,96.7 468.4,96.7 467.4,96.7 467.4,97.7 467.4,155.9 467.4,156.9 468.4,156.9 
		476,156.9 477,156.9 	"/>
	<polygon points="280.7,232.9 281.7,232.9 281.7,231.9 281.7,173.7 281.7,172.7 280.7,172.7 273.1,172.7 272.1,172.7 272.1,173.7 
		272.1,231.9 272.1,232.9 273.1,232.9 	"/>
	<polygon points="359.8,231.9 359.8,173.7 359.8,172.7 358.8,172.7 351.3,172.7 350.3,172.7 350.3,173.7 350.3,231.9 350.3,232.9 
		351.3,232.9 358.8,232.9 359.8,232.9 	"/>
	<polygon points="477,231.9 477,173.7 477,172.7 476,172.7 468.4,172.7 467.4,172.7 467.4,173.7 467.4,231.9 467.4,232.9 
		468.4,232.9 476,232.9 477,232.9 	"/>
	<polygon points="281.7,308.9 281.7,307.9 281.7,249.7 281.7,248.7 280.7,248.7 273.1,248.7 272.1,248.7 272.1,249.7 272.1,307.9 
		272.1,308.9 273.1,308.9 280.7,308.9 	"/>
	<polygon points="351.3,248.7 350.3,248.7 350.3,249.7 350.3,307.9 350.3,308.9 351.3,308.9 358.8,308.9 359.8,308.9 359.8,307.9 
		359.8,249.7 359.8,248.7 358.8,248.7 	"/>
	<polygon points="415.1,304 412.1,304 373.1,304 372.1,304 372.1,305 372.1,312.4 372.1,313.4 373.1,313.4 412.1,313.4 415.1,313.4 
		454.2,313.4 455.2,313.4 455.2,312.4 455.2,305 455.2,304 454.2,304 	"/>
	<polygon points="468.4,248.7 467.4,248.7 467.4,249.7 467.4,307.9 467.4,308.9 468.4,308.9 476,308.9 477,308.9 477,307.9 
		477,249.7 477,248.7 476,248.7 	"/>
	<polygon points="1476.6,380 1473.6,380 1437.5,380 1434.5,380 1398.5,380 1395.5,380 1359.4,380 1356.4,380 1317.4,380 1316.4,380 
		1316.4,381 1316.4,388.4 1316.4,389.4 1317.4,389.4 1356.4,389.4 1359.4,389.4 1395.5,389.4 1398.5,389.4 1434.5,389.4 
		1437.5,389.4 1473.6,389.4 1476.6,389.4 1515.7,389.4 1516.7,389.4 1516.7,388.4 1516.7,381 1516.7,380 1515.7,380 	"/>
	<polygon points="1565,324.7 1563.1,324.7 1554.4,324.7 1553.9,324.7 1553.6,325.1 1517.7,376.4 1516.6,377.9 1518.5,377.9 
		1527.2,377.9 1527.7,377.9 1528,377.5 1563.9,326.3 	"/>
</g>
</svg>
